<?xml version="1.0" encoding="UTF-8"?>
<svg width="469px" height="98px" viewBox="0 0 469 98" version="1.1" xmlns="http://www.w3.org/2000/svg" xmlns:xlink="http://www.w3.org/1999/xlink">
    <!-- Generator: Sketch 40 (33762) - http://www.bohemiancoding.com/sketch -->
    <title>Desktop</title>
    <desc>Created with Sketch.</desc>
    <defs></defs>
    <g id="Welcome" stroke="none" stroke-width="1" fill="none" fill-rule="evenodd">
        <g id="Desktop" fill="#FFFFFF">
            <g id="Logo" transform="translate(86.000000, 18.000000)">
                <g id="Group">
                    <path d="M5.43539855,41.5067534 C2.32496377,24.750971 13.3555435,8.64035562 30.0728623,5.5225574 C45.5296739,2.64015103 60.4348551,11.8745788 65.0540942,26.5270865 C65.0540942,26.5270865 65.2826087,27.4551812 66.1051087,27.3242667 C66.9276087,27.193098 68.0559783,27.0133766 69.0702174,26.8519578 C70.0847101,26.6902848 69.9274638,25.6988936 69.9274638,25.6988936 C64.8963406,8.61696896 47.8044203,-2.38340613 29.8481522,0.668807756 C10.4657609,3.96353118 -2.58213768,22.3828171 0.705072464,41.809509 C3.99228261,61.2362009 22.3695652,74.3139218 41.7517029,71.0191984 C54.9071377,68.7829757 64.7979348,60.4995209 68.9905797,48.7423839 C68.9905797,48.7423839 69.1820652,47.9909602 68.1627536,47.9909602 C67.0777536,47.9909602 65.3515942,47.9734202 64.6465217,47.9909602 C63.9414493,48.0087544 63.6688043,48.7845816 63.6672826,48.7845816 C62.2226449,51.7595178 58.3145652,58.8100886 50.0746014,63.1638212 C47.3986232,64.5776976 44.4675,65.616879 41.337029,66.200783 C24.6197101,69.318327 8.54583333,58.2625357 5.43539855,41.5067534 Z" id="Fill-4"></path>
                    <path d="M38.8905797,56.1900196 C27.6185507,57.9852003 17.0287681,50.2813281 15.2376812,38.9837898 C13.4465942,27.6862516 21.1323913,17.0722649 32.4041667,15.2770842 C43.6764493,13.4819035 54.2659783,21.1850132 56.0570652,32.4828056 C57.8481522,43.7803438 50.1626087,54.3945848 38.8905797,56.1900196 L38.8905797,56.1900196 Z M31.5750725,10.0468601 C17.4211232,12.3011312 7.77025362,25.6287336 10.0193841,39.814779 C12.2685145,54.0010787 25.5657246,63.6745148 39.7196739,61.4202437 C53.8738768,59.1659727 63.5244928,45.8378619 61.2753623,31.6515622 C59.0264855,17.4655167 45.7292754,7.79258904 31.5750725,10.0468601 L31.5750725,10.0468601 Z" id="Fill-6"></path>
                    <path d="M26.6068478,29.8195221 C28.6530797,26.8715314 32.1107246,25.0008525 35.9559058,25.1602377 C41.9363406,25.4078313 46.5842391,30.4682478 46.3367029,36.4623516 C46.0894203,42.4564553 41.0407971,47.1147229 35.0603623,46.8671293 C31.2149275,46.7077441 27.9234058,44.557442 26.1272464,41.4500661 C26.0917391,41.4538792 25.5766304,40.3376743 24.7432246,40.4711309 C23.8314493,40.6183143 22.4005072,40.8000694 21.6383696,40.9851291 C20.7915217,41.2136574 20.9814855,42.0133797 20.9728623,42.0141423 C23.6625362,47.7359947 29.0256522,51.5177709 34.8584783,51.7595178 C43.5349275,52.1189607 50.859058,45.3609773 51.2181884,36.664697 C51.576558,27.968671 44.8339855,20.6275463 36.1575362,20.2678492 C29.5313768,19.9933101 25.7305797,22.0510823 22.3480072,27.5286458 C22.3480072,27.5286458 21.5460507,28.4653834 22.5369565,29.1626619 C22.5369565,29.1626619 24.0992754,30.2219253 24.7929348,30.6583916 C25.6689493,31.2097576 26.6015217,29.8179969 26.6068478,29.8195221" id="Fill-7"></path>
                    <path d="M35.4364855,39.1558852 C33.7022101,39.1558852 32.2961232,37.7468387 32.2961232,36.0083452 C32.2961232,34.270106 33.7022101,32.8610595 35.4364855,32.8610595 C37.1707609,32.8610595 38.5768478,34.270106 38.5768478,36.0083452 C38.5768478,37.7468387 37.1707609,39.1558852 35.4364855,39.1558852 L35.4364855,39.1558852 Z M35.4364855,29.9095099 C32.0757246,29.9095099 29.351558,32.6401572 29.351558,36.0083452 C29.351558,39.3767875 32.0757246,42.1074347 35.4364855,42.1074347 C38.7969928,42.1074347 41.521413,39.3767875 41.521413,36.0083452 C41.521413,32.6401572 38.7969928,29.9095099 35.4364855,29.9095099 L35.4364855,29.9095099 Z" id="Fill-15"></path>
                </g>
                <path d="M103.605469,59.3984375 L84.4453125,11.9375 L84.1640625,11.9375 C84.3515634,14.8437645 84.4453125,17.8202973 84.4453125,20.8671875 L84.4453125,59.3984375 L81,59.3984375 L81,8 L86.5546875,8 L104.765625,53.2109375 L104.976562,53.2109375 L123.1875,8 L128.601562,8 L128.601562,59.3984375 L124.980469,59.3984375 L124.980469,20.4453125 C124.980469,17.7265489 125.121092,14.914077 125.402344,12.0078125 L125.121094,12.0078125 L105.890625,59.3984375 L103.605469,59.3984375 Z M158.837072,60.1015625 C153.282356,60.1015625 148.952322,58.3906421 145.846837,54.96875 C142.741353,51.5468579 141.188634,46.7539371 141.188634,40.5898438 C141.188634,34.4960633 142.688619,29.6152527 145.688634,25.9472656 C148.688649,22.2792785 152.731577,20.4453125 157.81754,20.4453125 C162.317563,20.4453125 165.868309,22.0156093 168.469884,25.15625 C171.07146,28.2968907 172.372228,32.562473 172.372228,37.953125 L172.372228,40.765625 L144.844884,40.765625 C144.891759,46.0156512 146.116357,50.0234237 148.518712,52.7890625 C150.921068,55.5547013 154.360487,56.9375 158.837072,56.9375 C161.01677,56.9375 162.932767,56.7851578 164.585119,56.4804688 C166.237471,56.1757797 168.329247,55.5195363 170.860509,54.5117188 L170.860509,57.6757812 C168.704248,58.6132859 166.712081,59.2519514 164.883947,59.5917969 C163.055813,59.9316423 161.040208,60.1015625 158.837072,60.1015625 L158.837072,60.1015625 Z M157.81754,23.5390625 C154.137835,23.5390625 151.184739,24.751941 148.958165,27.1777344 C146.731592,29.6035278 145.430824,33.1015396 145.055822,37.671875 L168.680822,37.671875 C168.680822,33.2421654 167.719894,29.7793094 165.798009,27.2832031 C163.876125,24.7870969 161.215995,23.5390625 157.81754,23.5390625 L157.81754,23.5390625 Z M207.283518,59.3984375 L206.404612,53.3515625 L206.123362,53.3515625 C204.201477,55.8125123 202.226888,57.5527293 200.199534,58.5722656 C198.17218,59.591802 195.77572,60.1015625 193.010081,60.1015625 C189.260062,60.1015625 186.342122,59.1406346 184.256175,57.21875 C182.170227,55.2968654 181.127268,52.6367357 181.127268,49.2382812 C181.127268,45.5117001 182.679987,42.6171978 185.785471,40.5546875 C188.890956,38.4921772 193.385051,37.4023443 199.267893,37.2851562 L206.545237,37.0742188 L206.545237,34.5429688 C206.545237,30.9101381 205.806963,28.167978 204.330393,26.3164062 C202.853823,24.4648345 200.474941,23.5390625 197.193675,23.5390625 C193.654594,23.5390625 189.986662,24.5234277 186.189768,26.4921875 L184.888987,23.46875 C189.084321,21.4999902 193.232717,20.515625 197.3343,20.515625 C201.529633,20.515625 204.664367,21.6054579 206.738596,23.7851562 C208.812826,25.9648546 209.849925,29.3632582 209.849925,33.9804688 L209.849925,59.3984375 L207.283518,59.3984375 Z M193.221018,56.9375 C197.299164,56.9375 200.515928,55.771496 202.871409,53.4394531 C205.226889,51.1074102 206.404612,47.8672082 206.404612,43.71875 L206.404612,39.9570312 L199.724925,40.2382812 C194.35771,40.496095 190.531577,41.3339773 188.246409,42.7519531 C185.961241,44.169929 184.818675,46.3788912 184.818675,49.3789062 C184.818675,51.7695432 185.551089,53.6269465 187.01594,54.9511719 C188.480791,56.2753972 190.54913,56.9375 193.221018,56.9375 L193.221018,56.9375 Z M239.733871,60.1015625 C233.851029,60.1015625 229.56201,57.8984595 226.866684,53.4921875 L226.62059,53.4921875 L226.726059,56.4453125 C226.819809,58.1796962 226.866684,60.0781147 226.866684,62.140625 L226.866684,76.6953125 L223.386215,76.6953125 L223.386215,21.1835937 L226.33934,21.1835937 L227.007309,26.6328125 L227.218246,26.6328125 C229.843259,22.5077919 234.03853,20.4453125 239.804184,20.4453125 C244.96046,20.4453125 248.892061,22.1386549 251.599106,25.5253906 C254.30615,28.9121263 255.659652,33.8398114 255.659652,40.3085938 C255.659652,46.5898752 254.235839,51.4589671 251.388168,54.9160156 C248.540498,58.3730642 244.655771,60.1015625 239.733871,60.1015625 L239.733871,60.1015625 Z M239.663559,57.0078125 C243.577641,57.0078125 246.606907,55.554702 248.751449,52.6484375 C250.895991,49.742173 251.968246,45.6758074 251.968246,40.4492188 C251.968246,29.2226001 247.913599,23.609375 239.804184,23.609375 C235.351036,23.609375 232.081538,24.8339721 229.99559,27.2832031 C227.909642,29.7324341 226.866684,33.7226286 226.866684,39.2539062 L226.866684,40.3789062 C226.866684,46.3554986 227.868627,50.621081 229.872543,53.1757812 C231.876459,55.7304815 235.140099,57.0078125 239.663559,57.0078125 L239.663559,57.0078125 Z M270.426412,21.1835938 L270.426412,45.9335938 C270.426412,49.777363 271.234997,52.5722569 272.852193,54.3183594 C274.469388,56.0644619 276.977176,56.9375 280.37563,56.9375 C284.922528,56.9375 288.268198,55.789074 290.41274,53.4921875 C292.557282,51.195301 293.629537,47.4570571 293.629537,42.2773438 L293.629537,21.1835938 L297.074849,21.1835938 L297.074849,59.3984375 L294.121724,59.3984375 L293.488912,54.125 L293.277974,54.125 C290.793587,58.1093949 286.375662,60.1015625 280.024068,60.1015625 C271.328712,60.1015625 266.981099,55.4492653 266.981099,46.1445312 L266.981099,21.1835938 L270.426412,21.1835938 Z" id="Meapu"></path>
            </g>
        </g>
    </g>
</svg>